<?xml version="1.0" standalone="no"?>
<!DOCTYPE svg PUBLIC "-//W3C//DTD SVG 20010904//EN"
 "http://www.w3.org/TR/2001/REC-SVG-20010904/DTD/svg10.dtd">
<svg version="1.0" xmlns="http://www.w3.org/2000/svg"
 width="500.000000pt" height="500.000000pt" viewBox="0 0 500.000000 500.000000"
 preserveAspectRatio="xMidYMid meet">
<metadata>
Created by potrace 1.16, written by Peter Selinger 2001-2019
</metadata>
<g transform="translate(0.000000,500.000000) scale(0.100000,-0.100000)"
fill="#000000" stroke="none">
<path d="M1295 4734 c-120 -16 -215 -64 -290 -146 -93 -103 -135 -204 -135
-328 0 -138 44 -242 142 -336 105 -101 193 -138 333 -137 126 0 230 44 332
140 142 134 182 339 100 516 -44 94 -76 136 -149 192 -93 70 -233 111 -333 99z"/>
<path d="M2402 4730 c-124 -19 -269 -119 -335 -233 -86 -146 -88 -330 -6 -474
51 -90 171 -183 284 -221 58 -19 199 -19 266 2 102 31 226 128 278 219 193
339 -100 765 -487 707z"/>
<path d="M3540 4730 c-113 -20 -239 -93 -303 -175 -16 -20 -45 -71 -64 -112
-82 -177 -42 -382 100 -516 101 -96 210 -141 337 -140 135 0 246 47 339 143
88 91 131 199 131 330 0 109 -26 180 -111 307 -76 112 -279 190 -429 163z"/>
<path d="M4757 4216 c-54 -20 -82 -49 -129 -136 -47 -84 -98 -157 -211 -300
-87 -111 -161 -180 -225 -211 -69 -34 -113 -24 -305 70 -92 44 -178 83 -191
87 -17 4 -33 -3 -59 -25 l-35 -31 -39 44 c-54 62 -92 68 -165 27 -30 -17 -58
-31 -61 -31 -17 0 -6 49 12 55 48 15 43 31 -22 73 -65 42 -160 137 -179 178
-14 30 -15 30 -60 -1 l-38 -25 -55 31 c-54 30 -57 31 -70 13 -8 -11 -15 -23
-15 -27 0 -17 -131 -145 -176 -173 -24 -16 -43 -33 -41 -39 2 -5 55 -39 119
-75 63 -36 153 -87 201 -115 l86 -50 1 -455 c0 -337 4 -482 15 -560 12 -85 14
-292 15 -1103 0 -877 2 -1002 15 -1035 56 -133 224 -178 344 -92 33 24 44 41
61 96 20 65 20 87 20 950 0 583 3 884 10 884 7 0 10 -304 10 -892 0 -592 4
-906 11 -931 23 -84 113 -149 208 -149 104 -1 176 51 209 151 9 25 12 304 12
1036 0 901 2 1007 16 1046 13 34 19 111 27 334 5 160 11 291 12 293 2 2 33 10
70 17 91 19 212 80 316 159 88 66 281 263 309 314 8 15 40 65 71 112 31 47 77
123 102 169 41 72 47 91 47 140 0 130 -125 220 -243 177z"/>
<path d="M110 4174 c-70 -31 -110 -92 -110 -173 0 -57 41 -143 146 -304 35
-54 64 -102 64 -107 0 -5 15 -24 33 -42 18 -18 60 -64 92 -102 56 -65 226
-216 243 -216 5 0 18 -9 31 -21 31 -29 138 -75 193 -83 30 -5 51 -14 57 -24 5
-9 11 -132 14 -272 4 -163 10 -269 18 -295 10 -31 14 -278 19 -1065 5 -1012 5
-1026 26 -1070 22 -47 79 -105 121 -121 40 -15 125 -10 169 10 57 26 110 92
123 153 7 32 11 347 11 928 0 568 3 880 10 880 6 0 11 -327 12 -917 l3 -918
27 -41 c55 -84 110 -111 209 -102 73 7 137 51 171 117 l28 53 0 1017 c0 864 2
1024 15 1071 12 45 15 146 15 555 l0 501 -42 11 c-24 7 -103 48 -176 92 -125
75 -134 79 -165 69 -18 -6 -48 -23 -67 -37 -58 -45 -59 -45 -100 -12 l-39 31
-174 -84 c-96 -47 -193 -89 -215 -95 -42 -12 -91 -6 -132 14 -64 33 -257 279
-363 463 -48 84 -72 110 -122 133 -48 22 -98 23 -145 3z"/>
<path d="M1781 4012 c-23 -45 -141 -159 -194 -187 -20 -11 -37 -23 -37 -26 0
-4 54 -37 121 -73 66 -36 154 -88 196 -116 42 -27 80 -50 84 -50 5 0 9 -213 9
-472 1 -319 5 -488 12 -518 8 -31 13 -361 17 -1090 7 -1156 2 -1079 72 -1149
44 -45 91 -63 160 -63 85 0 153 45 195 129 18 36 19 77 22 941 2 574 6 902 12
902 6 0 10 -326 10 -900 0 -985 -3 -939 58 -1003 58 -62 142 -85 222 -61 60
18 104 53 133 108 l22 41 5 1030 c4 814 8 1037 18 1065 17 45 31 383 32 770
l0 296 -117 64 c-65 35 -120 67 -123 71 -3 3 -20 14 -38 23 -29 15 -36 15 -85
1 -32 -9 -65 -28 -82 -45 l-29 -30 -46 44 c-62 62 -101 68 -167 27 -28 -17
-53 -31 -57 -31 -9 0 -8 50 2 50 4 0 17 8 30 18 l24 18 -60 37 c-62 38 -176
152 -187 186 -8 27 -22 26 -68 -5 l-38 -25 -46 30 c-26 17 -50 31 -55 31 -4 0
-16 -17 -27 -38z"/>
<path d="M835 3978 c-27 -11 -67 -27 -88 -36 -109 -45 -137 -203 -50 -287 39
-38 108 -60 155 -51 18 4 104 41 191 83 l157 77 -77 37 c-62 29 -95 54 -157
118 -43 45 -79 81 -80 80 0 0 -23 -10 -51 -21z"/>
<path d="M3973 3924 c-57 -63 -82 -83 -152 -116 l-83 -41 163 -80 c143 -70
171 -80 219 -81 66 0 108 20 146 69 32 42 42 114 24 169 -14 43 -80 102 -124
112 -17 3 -48 15 -68 25 -21 11 -42 19 -47 19 -5 0 -40 -34 -78 -76z"/>
</g>
</svg>
