<?xml version="1.0" standalone="no"?>
<!DOCTYPE svg PUBLIC "-//W3C//DTD SVG 20010904//EN"
 "http://www.w3.org/TR/2001/REC-SVG-20010904/DTD/svg10.dtd">
<svg version="1.0" xmlns="http://www.w3.org/2000/svg"
 width="500.000000pt" height="500.000000pt" viewBox="0 0 500.000000 500.000000"
 preserveAspectRatio="xMidYMid meet">
<metadata>
Created by potrace 1.16, written by Peter Selinger 2001-2019
</metadata>
<g transform="translate(0.000000,500.000000) scale(0.100000,-0.100000)"
fill="#000000" stroke="none">
<path d="M2340 4606 c-313 -67 -559 -282 -661 -579 -123 -360 15 -773 332
-988 437 -296 1025 -144 1262 327 220 438 34 965 -415 1173 -45 21 -112 46
-148 56 -88 23 -286 28 -370 11z"/>
<path d="M812 3790 c-226 -59 -407 -243 -467 -475 -19 -76 -19 -221 1 -305 27
-116 79 -205 174 -300 133 -134 273 -193 455 -193 166 0 314 58 435 170 133
123 200 264 208 440 6 133 -8 205 -65 322 -131 273 -446 418 -741 341z"/>
<path d="M3862 3790 c-113 -30 -206 -84 -293 -171 -63 -62 -85 -93 -122 -170
-57 -117 -71 -189 -65 -322 8 -176 75 -317 208 -440 121 -112 269 -170 435
-170 182 0 322 59 455 193 97 96 147 184 176 305 24 102 15 267 -18 357 -73
196 -229 349 -418 409 -96 31 -261 35 -358 9z"/>
<path d="M1995 2704 c-140 -18 -234 -52 -337 -120 -144 -96 -255 -255 -298
-428 -19 -76 -20 -114 -20 -875 0 -777 1 -797 20 -829 11 -18 34 -41 52 -52
32 -20 53 -20 1088 -20 1035 0 1056 0 1088 20 18 11 41 34 52 52 19 32 20 52
20 829 0 761 -1 799 -20 875 -66 262 -260 457 -530 532 -45 13 -145 16 -570
17 -283 2 -528 1 -545 -1z"/>
<path d="M595 2319 c-232 -39 -450 -215 -540 -436 -51 -126 -55 -177 -54 -665
0 -394 2 -461 17 -518 38 -145 161 -267 307 -305 48 -12 126 -15 403 -15 l344
0 -8 28 c-5 15 -9 412 -9 882 0 855 0 855 23 939 12 47 22 88 22 93 0 11 -440
8 -505 -3z"/>
<path d="M3900 2323 c0 -5 10 -47 23 -94 22 -84 22 -84 22 -939 0 -470 -4
-867 -9 -882 l-8 -28 344 0 c277 0 355 3 403 15 146 38 269 160 307 305 25 94
26 930 2 1048 -54 262 -236 465 -492 550 -73 24 -91 26 -334 30 -151 2 -258 0
-258 -5z"/>
</g>
</svg>
